<?xml version="1.0" encoding="utf-8"?>
<!-- Generator: Adobe Illustrator 19.2.1, SVG Export Plug-In . SVG Version: 6.00 Build 0)  -->
<svg version="1.1" id="Layer_1" xmlns="http://www.w3.org/2000/svg" xmlns:xlink="http://www.w3.org/1999/xlink" x="0px" y="0px"
	 viewBox="0 0 12.7 8.8" style="enable-background:new 0 0 12.7 8.8;" xml:space="preserve">
<style type="text/css">
	.st0{fill:#231F20;}
</style>
<title>dropdown-arrow</title>
<g>
	<path class="st0" d="M12.7,2.4c0,0.6-0.3,1.3-0.7,1.7L8.1,8.1C7.1,9,5.6,9,4.6,8.1L0.7,4.2C0.3,3.7,0,3.1,0,2.4
		c0-0.6,0.3-1.3,0.7-1.7C1,0.5,1.4,0,6.4,0s5.4,0.5,5.6,0.7C12.5,1.2,12.7,1.8,12.7,2.4z"/>
</g>
<path class="st0" d="M6.4,7.8c-0.4,0-0.7-0.2-1-0.4L1.4,3.5c-0.5-0.6-0.5-1.4,0-2c0.6-0.6,9.3-0.6,9.9,0c0.5,0.6,0.5,1.4,0,2
	L7.4,7.4C7.1,7.6,6.7,7.8,6.4,7.8z"/>
</svg>
